<mxfile host="Electron" modified="2024-01-30T22:53:45.322Z" agent="Mozilla/5.0 (Windows NT 10.0; Win64; x64) AppleWebKit/537.36 (KHTML, like Gecko) draw.io/22.1.18 Chrome/120.0.6099.199 Electron/28.1.2 Safari/537.36" etag="8aX-NMdgHjnQ8igUig69" version="22.1.18" type="device">
  <diagram id="J0JOmPV19hwqg5iboZO3" name="Page-1">
    <mxGraphModel dx="789" dy="1713" grid="1" gridSize="10" guides="1" tooltips="1" connect="1" arrows="1" fold="1" page="1" pageScale="1" pageWidth="1600" pageHeight="1200" math="0" shadow="0">
      <root>
        <mxCell id="0" />
        <mxCell id="1" parent="0" />
        <mxCell id="RZsY5SKqr2UFWs2zUh5R-1" value="" style="ellipse;html=1;shape=startState;fillColor=#000000;strokeColor=#ff0000;" parent="1" vertex="1">
          <mxGeometry x="785.5" y="-20" width="45" height="50" as="geometry" />
        </mxCell>
        <mxCell id="RZsY5SKqr2UFWs2zUh5R-3" value="&lt;b&gt;select media type&lt;/b&gt;" style="rounded=1;whiteSpace=wrap;html=1;arcSize=40;fontColor=#000000;fillColor=#ffffc0;strokeColor=#ff0000;" parent="1" vertex="1">
          <mxGeometry x="748" y="70" width="120" height="40" as="geometry" />
        </mxCell>
        <mxCell id="RZsY5SKqr2UFWs2zUh5R-4" value="" style="edgeStyle=orthogonalEdgeStyle;html=1;verticalAlign=bottom;endArrow=open;endSize=8;strokeColor=#ff0000;" parent="1" source="RZsY5SKqr2UFWs2zUh5R-3" target="N1bP1ElejFz3QuLYywA2-1" edge="1">
          <mxGeometry relative="1" as="geometry">
            <mxPoint x="808" y="230" as="targetPoint" />
          </mxGeometry>
        </mxCell>
        <mxCell id="RZsY5SKqr2UFWs2zUh5R-5" value="&lt;b&gt;Show Uploaded Media&amp;nbsp;&lt;/b&gt;" style="rounded=1;whiteSpace=wrap;html=1;arcSize=40;fontColor=#000000;fillColor=#ffffc0;strokeColor=#ff0000;" parent="1" vertex="1">
          <mxGeometry x="748" y="230" width="120" height="40" as="geometry" />
        </mxCell>
        <mxCell id="RZsY5SKqr2UFWs2zUh5R-6" value="" style="edgeStyle=orthogonalEdgeStyle;html=1;verticalAlign=bottom;endArrow=open;endSize=8;strokeColor=#FF0000;" parent="1" source="RZsY5SKqr2UFWs2zUh5R-5" target="N1bP1ElejFz3QuLYywA2-8" edge="1">
          <mxGeometry relative="1" as="geometry">
            <mxPoint x="808" y="330" as="targetPoint" />
          </mxGeometry>
        </mxCell>
        <mxCell id="N1bP1ElejFz3QuLYywA2-11" style="edgeStyle=orthogonalEdgeStyle;rounded=0;orthogonalLoop=1;jettySize=auto;html=1;strokeColor=#FF0000;" parent="1" edge="1">
          <mxGeometry relative="1" as="geometry">
            <mxPoint x="690" y="460" as="sourcePoint" />
            <mxPoint x="775" y="520" as="targetPoint" />
            <Array as="points">
              <mxPoint x="690" y="490" />
              <mxPoint x="775" y="490" />
            </Array>
          </mxGeometry>
        </mxCell>
        <mxCell id="RZsY5SKqr2UFWs2zUh5R-15" value="&lt;b&gt;Detect AI Generated&amp;nbsp;Image&amp;nbsp;&lt;/b&gt;" style="rounded=1;whiteSpace=wrap;html=1;arcSize=40;fontColor=#000000;fillColor=#ffffc0;strokeColor=#ff0000;" parent="1" vertex="1">
          <mxGeometry x="640" y="420" width="120" height="40" as="geometry" />
        </mxCell>
        <mxCell id="N1bP1ElejFz3QuLYywA2-12" style="edgeStyle=orthogonalEdgeStyle;rounded=0;orthogonalLoop=1;jettySize=auto;html=1;strokeColor=#FF0000;entryX=0.653;entryY=0.287;entryDx=0;entryDy=0;entryPerimeter=0;" parent="1" source="RZsY5SKqr2UFWs2zUh5R-19" target="RZsY5SKqr2UFWs2zUh5R-21" edge="1">
          <mxGeometry relative="1" as="geometry" />
        </mxCell>
        <mxCell id="RZsY5SKqr2UFWs2zUh5R-19" value="&lt;b&gt;Detect AI &lt;br&gt;Generated Text&amp;nbsp;&lt;/b&gt;" style="rounded=1;whiteSpace=wrap;html=1;arcSize=40;fontColor=#000000;fillColor=#ffffc0;strokeColor=#ff0000;" parent="1" vertex="1">
          <mxGeometry x="870" y="420" width="120" height="40" as="geometry" />
        </mxCell>
        <mxCell id="RZsY5SKqr2UFWs2zUh5R-21" value="" style="shape=line;html=1;strokeWidth=6;strokeColor=#ff0000;" parent="1" vertex="1">
          <mxGeometry x="680" y="520" width="270" height="10" as="geometry" />
        </mxCell>
        <mxCell id="RZsY5SKqr2UFWs2zUh5R-22" value="" style="edgeStyle=orthogonalEdgeStyle;html=1;verticalAlign=bottom;endArrow=open;endSize=8;strokeColor=#ff0000;" parent="1" source="RZsY5SKqr2UFWs2zUh5R-21" edge="1">
          <mxGeometry relative="1" as="geometry">
            <mxPoint x="820" y="600" as="targetPoint" />
            <Array as="points">
              <mxPoint x="820" y="600" />
            </Array>
          </mxGeometry>
        </mxCell>
        <mxCell id="RZsY5SKqr2UFWs2zUh5R-23" value="&lt;b&gt;Show Result&lt;/b&gt;" style="rounded=1;whiteSpace=wrap;html=1;arcSize=40;fontColor=#000000;fillColor=#ffffc0;strokeColor=#ff0000;" parent="1" vertex="1">
          <mxGeometry x="760" y="600" width="120" height="40" as="geometry" />
        </mxCell>
        <mxCell id="RZsY5SKqr2UFWs2zUh5R-24" value="" style="edgeStyle=orthogonalEdgeStyle;html=1;verticalAlign=bottom;endArrow=open;endSize=8;strokeColor=#ff0000;" parent="1" source="RZsY5SKqr2UFWs2zUh5R-23" target="RZsY5SKqr2UFWs2zUh5R-25" edge="1">
          <mxGeometry relative="1" as="geometry">
            <mxPoint x="820" y="700" as="targetPoint" />
          </mxGeometry>
        </mxCell>
        <mxCell id="RZsY5SKqr2UFWs2zUh5R-25" value="" style="ellipse;html=1;shape=endState;fillColor=#000000;strokeColor=#ff0000;" parent="1" vertex="1">
          <mxGeometry x="802.5" y="690" width="35" height="35" as="geometry" />
        </mxCell>
        <mxCell id="N1bP1ElejFz3QuLYywA2-1" value="&lt;b&gt;upload media&amp;nbsp;&lt;/b&gt;" style="rounded=1;whiteSpace=wrap;html=1;arcSize=40;fontColor=#000000;fillColor=#ffffc0;strokeColor=#ff0000;" parent="1" vertex="1">
          <mxGeometry x="748" y="140" width="120" height="40" as="geometry" />
        </mxCell>
        <mxCell id="N1bP1ElejFz3QuLYywA2-3" value="" style="edgeStyle=orthogonalEdgeStyle;html=1;verticalAlign=bottom;endArrow=open;endSize=8;strokeColor=#ff0000;" parent="1" source="RZsY5SKqr2UFWs2zUh5R-1" target="RZsY5SKqr2UFWs2zUh5R-3" edge="1">
          <mxGeometry relative="1" as="geometry">
            <mxPoint x="818" y="150" as="targetPoint" />
            <mxPoint x="818" y="120" as="sourcePoint" />
          </mxGeometry>
        </mxCell>
        <mxCell id="N1bP1ElejFz3QuLYywA2-4" value="" style="edgeStyle=orthogonalEdgeStyle;html=1;verticalAlign=bottom;endArrow=open;endSize=8;strokeColor=#ff0000;entryX=0.5;entryY=0;entryDx=0;entryDy=0;" parent="1" source="N1bP1ElejFz3QuLYywA2-1" target="RZsY5SKqr2UFWs2zUh5R-5" edge="1">
          <mxGeometry relative="1" as="geometry">
            <mxPoint x="828" y="160" as="targetPoint" />
            <mxPoint x="828" y="130" as="sourcePoint" />
          </mxGeometry>
        </mxCell>
        <mxCell id="N1bP1ElejFz3QuLYywA2-9" style="edgeStyle=orthogonalEdgeStyle;rounded=0;orthogonalLoop=1;jettySize=auto;html=1;strokeColor=#FF0000;" parent="1" source="N1bP1ElejFz3QuLYywA2-8" target="RZsY5SKqr2UFWs2zUh5R-19" edge="1">
          <mxGeometry relative="1" as="geometry" />
        </mxCell>
        <mxCell id="N1bP1ElejFz3QuLYywA2-13" value="text" style="edgeLabel;html=1;align=center;verticalAlign=middle;resizable=0;points=[];" parent="N1bP1ElejFz3QuLYywA2-9" vertex="1" connectable="0">
          <mxGeometry x="-0.3746" y="2" relative="1" as="geometry">
            <mxPoint as="offset" />
          </mxGeometry>
        </mxCell>
        <mxCell id="N1bP1ElejFz3QuLYywA2-16" value="&lt;font style=&quot;font-size: 17px;&quot;&gt;Text&lt;/font&gt;" style="edgeLabel;html=1;align=center;verticalAlign=middle;resizable=0;points=[];" parent="N1bP1ElejFz3QuLYywA2-9" vertex="1" connectable="0">
          <mxGeometry x="-0.3202" y="4" relative="1" as="geometry">
            <mxPoint as="offset" />
          </mxGeometry>
        </mxCell>
        <mxCell id="N1bP1ElejFz3QuLYywA2-10" style="edgeStyle=orthogonalEdgeStyle;rounded=0;orthogonalLoop=1;jettySize=auto;html=1;entryX=0.5;entryY=0;entryDx=0;entryDy=0;strokeColor=#FF0000;" parent="1" source="N1bP1ElejFz3QuLYywA2-8" edge="1">
          <mxGeometry relative="1" as="geometry">
            <mxPoint x="690" y="420" as="targetPoint" />
          </mxGeometry>
        </mxCell>
        <mxCell id="N1bP1ElejFz3QuLYywA2-14" value="&lt;font style=&quot;font-size: 17px;&quot;&gt;image&lt;/font&gt;" style="edgeLabel;html=1;align=center;verticalAlign=middle;resizable=0;points=[];" parent="N1bP1ElejFz3QuLYywA2-10" vertex="1" connectable="0">
          <mxGeometry x="-0.4304" y="2" relative="1" as="geometry">
            <mxPoint as="offset" />
          </mxGeometry>
        </mxCell>
        <mxCell id="N1bP1ElejFz3QuLYywA2-8" value="&lt;font style=&quot;font-size: 16px;&quot;&gt;check media type&lt;/font&gt;" style="rhombus;whiteSpace=wrap;html=1;fillColor=#FFFFC0;" parent="1" vertex="1">
          <mxGeometry x="758" y="325" width="102" height="85" as="geometry" />
        </mxCell>
      </root>
    </mxGraphModel>
  </diagram>
</mxfile>
